<svg id="LOGO" xmlns="http://www.w3.org/2000/svg" viewBox="0 0 371 383"><defs><style>.cls-1{fill:#fff;}</style></defs><path class="cls-1" d="M253.18,147.46c.57.18,1.67-.27,1.24-1l-2.07-.07Z"/><path class="cls-1" d="M255.33,141.22c-1.22-.67-3.16-1.23-4.72-.11,2.09.35,1.42.78,3.87,1.14a1.13,1.13,0,0,1-1,1.61c.56.15-.1,1.33,1.22,1.45,1.21-1.41.93-2.78-.67-3.78C254.37,141.11,255,141.25,255.33,141.22Z"/><path class="cls-1" d="M212,73.25l.29.51A1,1,0,0,0,212,73.25Z"/><path class="cls-1" d="M166.14,50.22c.39,0,.6-.11.67-.28C166.42,50,166.09,50,166.14,50.22Z"/><path class="cls-1" d="M157.86,46.2c.18.1.34.16.5.24C158.19,46.22,158,46.08,157.86,46.2Z"/><path class="cls-1" d="M212,73.25l-.72-1.34C210.79,72.37,211.53,72.73,212,73.25Z"/><path class="cls-1" d="M247.28,132.38a1.83,1.83,0,0,0,.75.46,5.47,5.47,0,0,1-.44-.54Z"/><path class="cls-1" d="M230,87.29l.29.31a8.49,8.49,0,0,0,.84-.29Z"/><path class="cls-1" d="M241.34,100.75c-.18-.36-1.63.5-2.32.81a1.63,1.63,0,0,1,1.45,0A4.42,4.42,0,0,0,241.34,100.75Z"/><path class="cls-1" d="M252.21,126.32l.39.36C252.49,126.59,252.35,126.42,252.21,126.32Z"/><path class="cls-1" d="M221.19,78.22a1.53,1.53,0,0,0,.28-.56A1.48,1.48,0,0,0,221.19,78.22Z"/><path class="cls-1" d="M125.24,293.43c0,.11,0,.19,0,.29C125.33,293.56,125.36,293.44,125.24,293.43Z"/><path class="cls-1" d="M144.35,301.83l-.26.11a7.37,7.37,0,0,0,0,.94Z"/><path class="cls-1" d="M141.61,42.21l.08,0C142.14,42.08,141.88,42.1,141.61,42.21Z"/><path class="cls-1" d="M16.71,115.33c2.12-.82.46,3.35,3.12,1.83C19.12,117.09,18.56,113.88,16.71,115.33Z"/><path class="cls-1" d="M247.33,131.9a4.18,4.18,0,0,1-.27-.61A1.24,1.24,0,0,0,247.33,131.9Z"/><path class="cls-1" d="M19.83,117.16h0l.26-.16Z"/><path class="cls-1" d="M103.58,46.75a2.42,2.42,0,0,0,.55.63A1.34,1.34,0,0,0,103.58,46.75Z"/><path class="cls-1" d="M131.86,45.5l-.7-.2A1.75,1.75,0,0,0,131.86,45.5Z"/><path class="cls-1" d="M90.2,53.22c-.4,0-.6-.17-1,.23a1.35,1.35,0,0,0,.22.14C89.51,53.31,89.7,53.1,90.2,53.22Z"/><path class="cls-1" d="M76.32,59.24a2.83,2.83,0,0,0,.4.17l.38-.29Z"/><path class="cls-1" d="M85,283.7a6,6,0,0,1,0,1.64C85.22,284.16,87.24,284.6,85,283.7Z"/><path class="cls-1" d="M248.16,132c-.42.07-.67,0-.83-.13a3.07,3.07,0,0,0,.26.4A.93.93,0,0,0,248.16,132Z"/><path class="cls-1" d="M94.22,65.92l-2.1.56A8.65,8.65,0,0,0,94.22,65.92Z"/><path class="cls-1" d="M21.37,211.82l.35.41A.48.48,0,0,0,21.37,211.82Z"/><path class="cls-1" d="M86.31,69.2a3.28,3.28,0,0,0-1.6-.56,1.57,1.57,0,0,0,0,.5Z"/><path class="cls-1" d="M84.91,285.36v0Z"/><path class="cls-1" d="M99.71,286.79c-1.92-.7-1.58,1.75-2.4,2.82-2.57-.21-.57-1.92-1-3.25a7.87,7.87,0,0,0-2.48.75,2.84,2.84,0,0,1-2,.29c0-.38-.11-.58.3-.91-1.08.52-2.23.09-3.43-.3a4.73,4.73,0,0,0-3.75-.23,1.36,1.36,0,0,1,0-.6,8.88,8.88,0,0,1-1,2.89c-.9-.36-2.24.52-2-.94.52.29.81-.22,1.26-.52l-1.19.16c.07-2.26,1.56-.09,2.21-1.49-2.06-.13-4.85.31-5.94-.9.67-1.94,3.42,1,2.47-1.54l1.7,1.75c-.16-3.67,1.14.8,1.21-3-2.34-1.89-3.43-.55-5.75-2.49-1.13.66-.61,1.58-1.75,2.23-2.36-.18-2.47-1.72-2.45-3.09s.13-2.59-1.88-2.28c-1.39.72-3.07,2.71-4.22.35L69.56,275a2.28,2.28,0,0,0-2.67-.13c-.73.29-1.39.43-2.19-1.09,1-.42,2.31.7,2.11.23-.55-2.63-1.89.26-3.14-.63l1-1.83a42.15,42.15,0,0,0-4.46-2.09A23.48,23.48,0,0,1,55.53,267c.55-.34,1.41-.44,1.21-1.43-4-2-6.57-6.47-8.46-10.25-.8,0-1.57,0-2.36,0a.71.71,0,0,1,.67-1c-.55-1.66-.89.67-1.92.54a.87.87,0,0,1,.74-1.49,20.83,20.83,0,0,1-2.48-1.18,16.14,16.14,0,0,1-2.52-1.83,12.06,12.06,0,0,1-2-2.28,5.64,5.64,0,0,1-.88-2.61l.76.17c-.74-2.31-4.54-.07-4.39-2.86l.49.19c-1.06-2.39-2.76-4.51-4-6.77a17.29,17.29,0,0,1-1.54-3.35,8.66,8.66,0,0,1-.31-3.46c-1.29.24-1.66-1-2-2.17s-.8-2.24-2.48-1.67a16.2,16.2,0,0,1,.73-3.22,9.69,9.69,0,0,0,.17-3.85c-.22-1.06-2.69-.7-3.47-1.88l1.73-.65-2.42-1.1,1.79-1.63-.86-1.05a1.45,1.45,0,0,1-1,1.37c-1.49-1.63-.17-5,.72-5.3-.92-1.34-1.88-2.69-2.7-4.1.74-.08,1.17.62,1.76,1.1-2.38-2,1.8-.89-.39-2.69-.34.39-1.11.09-1.49.12a4,4,0,0,0,.33-2.66,10.73,10.73,0,0,0-.81-3l1.31.13a43,43,0,0,0-1-5.26,32.47,32.47,0,0,1-1-5.61c-.49,1.43-2.72,1.34-3,.19l1.91-.62c-1.26-.64-.65,1.26-2.24-.14.12-1.5,2.15-1.14,2.84-.37l-.81-1.71c.58-.14.92.25,1.67.31-.64-.32-.21-1.1.11-1.91s.61-1.64-.46-2.12l.58-.12a40.52,40.52,0,0,0-.42-4.6,37.52,37.52,0,0,1-.31-4.09c-1.68-.14-1.3-1.35-2.57-2.38.74-2.32,2.17-4.78,2.44-7.55-.58-2.06-1.34-.76-2.22-1.78,1.53.06,1.75-2.74,2.65-1.13.14-1.68.28-2.74.28-3.94s-.11-2.55-.2-4.77c-.72.32-1.11.78-1.56.4a1.43,1.43,0,0,1,1.73-1.33l.1.24a5.57,5.57,0,0,1,.6-3.8,24,24,0,0,1,2.34-3.5,22.89,22.89,0,0,0,2.24-3.25,4.07,4.07,0,0,0,.26-3.33l.07.25L23.33,131c.92-1.6.67,1.45,2.05.55a6.94,6.94,0,0,1,1.23-5.32,22,22,0,0,0,1.18-2,5.45,5.45,0,0,0,.63-2.46,3.89,3.89,0,0,0,2.91-1.51,11.58,11.58,0,0,0,1.75-3.08c.94-2.32,2-4.77,4.2-5.5l-1-.42c-.36-1.36,1.11-.63,1.71-1-.75-.39-1.37.3-1.52-.51a27.55,27.55,0,0,1,3.31-5.11,42.61,42.61,0,0,1,4.41-4.4c3.19-2.73,6.67-5.12,9.9-7.54,1.16-.9.51-2.19.14-3.36s-.47-2.23,1.83-2.51l.51,2.18a15.62,15.62,0,0,1,2.76-3.74,34.2,34.2,0,0,1,3.55-2.92c1.2-1,2.5-1.76,3.68-2.72a23.53,23.53,0,0,0,3.25-3.22c0,.58.28,1.08-.21,1.38,1.83.54,3.89-2.41,3.31-3.43.86-.36.74.79,1.53,1,1.5.12,1.79-3.15,3.08-2.23.21.14-.08.58-.22.79.18-.5,1-1,1.63-1.37s1-.83.29-1.38a6.27,6.27,0,0,0,2.86-1.41,8.41,8.41,0,0,1,1.24-.8,2.87,2.87,0,0,1,1.4-.26c.29-2.16,3.82-.74,3.12-3.31.92,2.54,4.43.6,5.31-1.12-.15.94,1.43.36,1.31,1.62,1.48-.54,2.7-1.49,2-2.72,1.93,1.08,3.08-.06,4.22-.9s2.15-1.62,3.48.17c1-.7,2.1-1.26,3.15-1.83s2.09-1.08,3.14-1.59c2.11-.9,4.21-1.7,6.31-2.37.25,2.67-4.68,1.1-4,3.86,1.89-.88,3.31-2.09,4.83-2.9a9.22,9.22,0,0,1,5.14-1.37c1.09.28-.49,1.2-.78,1.73a19.26,19.26,0,0,1,5.86-1,15.71,15.71,0,0,0,5.59-.93c0,.25-.4.54-.76.75.71-.11,1.66.35,1.58-.87l-.7.35c-.59-.88.11-1.83,1-2.68s2-1.51,2-2c-1.29,3.5,3.68,1,1.58,5.38a1.68,1.68,0,0,0,1-1.62c.7.26.89.74.15,1.66,2.59-.56,1.75-1.88,4.1-1.71,0,.59-.54.79-.82,1.47,1.24-1.07,2.56-2.2,4.5-1.45-.16.34,0,.83-.56.76a16.29,16.29,0,0,0,4.81-.93,7,7,0,0,1,5,.27c-1.54,2.33,1.11,1.09.89,3.32l2.09-.27-.58-1.22c1.73.35,3.62-.86,4.94.22l-1.49.59,3.33.36-1.63-1.26c2-.7.49-2.8,2.69-1.63-.53.08,1.75.53,2.29,2.06h0c1.05-.43,2.17-.93,3.28,0,.11.8-1,2.28-.94,2.8,1.39-1.49,4.12.79,5.82-.67a2.69,2.69,0,0,0-.89,1.67l1.21-1.17c.61.76.64,1,.18,1.85,2.23,1.14.27-2.94,2.61-.74-.26,0-.24.28-.78.33a13.47,13.47,0,0,0,4.07,1.51,8.53,8.53,0,0,1,3.82,1.65c-.25,2.39-2.38-.53-2.35,1.6,3.64,1.26,8.49,1.12,11.52,3.55l-.49-.57c1-1.25,1.46-.54,1.92.43s.95,2.19,2.15,2.09c-.53-.06-1.46,1.16-1.16.93a9.16,9.16,0,0,0,3.63,2c1.44.53,3.13,1,5.05,1.76l-.88.38c.81,1.49,3,2.78,4,4.07.88-.32,1.53.39,1.84-.9a5.72,5.72,0,0,0,1.84,3.66,11.58,11.58,0,0,0,3.12,1.93c.56.26,1.13.52,1.66.81a8.3,8.3,0,0,1,1.44,1,4.58,4.58,0,0,1,1.61,3.26c-.38-.39-1.43-.4-1.12-.1,1.09.72,2.12,1.51,3.2,2.26.8-1.16.26-.94.49-2.28a3.28,3.28,0,0,1,2.84.9c-1.9-.67-1.62,1.51-1.7,2.58.23-.38.75-.49,1-.83-.51,3.18,2.31-1.59,2.91,1.64l-.65.36c1,.54,2.35.66,2.89,1.7-.95,1.38-1.28-.41-2.34.38,1,1.16,4.32.55,4,2.67-.78-.26-1.39-1-2.16-1.26-.51,2.39,0,2.21.45,3.3l0-.11.87,2.63v-.84c2.26-.45,3,.26,3.68,1.14a4.18,4.18,0,0,0,3,2.34c-3.61-.73-1.49.48-3.12,1.31,0,.84.05,2-.54,2,1.92.24.1,2.35,2.84,2.7-.46.37.64,1.15-.77,1.67,1.23,1.12.68-.84,1.38-1.1,1.53.53,1.68,2.16,2,3.78s.71,3.35,2.75,4.33a12.06,12.06,0,0,0,3.35,2.14,9.3,9.3,0,0,1,3.16,2.16c-.24.64-.8.66-1.32.53a3.88,3.88,0,0,1-1-.42,4.38,4.38,0,0,0,1.6,3.95c-.59-.09-.87.36-1.31,1,.57,1,2.31,0,2,1.75a9.34,9.34,0,0,1-2.61-.28c1,1.1,2.46,2,3.45,3.23-.84.69-1.76-.32-2.55-.57.48.68,1.07,1.58,1.7,2.33a3,3,0,0,0,2.19,1.33l.24-1.18c.25.55-1.23.71-1.64.39-1.59-.94-.11-2.08.43-2.36l.71.87c1.45-1,1-2,.05-2.95s-2.21-1.84-2.53-2.83l2.66-.08L250,129.76c.43-.67,1.6-1.49,2.34-.65.57-1.89-1.33-.92-.55-2.68.14-.21.27-.2.42-.11-.41-.38-.86-.73-1.29-1.09.6.06,1.51-.93,1.57.06.17-3.08-3.5-3.22-2.24-4.94l.24.14c-2.45-3-1.82.46-5-1,1.06-1.24,2.12-2.5,3.16-3.77l-1.8.53c-.13-.37-.38-1.1.33-1.33-1.8-.66-.58.6-2,.44.28-1.21-.52-2.24-1.09-3.17s-1-1.76.15-2.7c-1.54.15,0,2.07-1.85.88,2.35-2.12-1.61-1.69-1.36-3.85,1.64-.45,1.83,1.38,2.09-.84-2.87.65-1.36-3.13-2.64-4-1.83,1.21-2.58-2-4.64-3.52.66-.31-1.84-4.36-2.8-6.56l.32-.19c-2,1.12-3.13-1-4.65-1.86a2.52,2.52,0,0,1,2.68-.69l-1.12-1.17a2.58,2.58,0,0,1-2.29-.5l1.47-.84c-1.53-1.55-4.41-1.71-5.6-4.44-1.16,1-1.42,4.58-4.15,3.38.48-.67,1.38-1.79,2.16-1.53-.25-.09-1.12-.08-1.24-.67l1.8-.26c-.5-1.28-1.27.42-1.91-.33.81-.86,0-1.12.76-1.72.27.09.31,1,.91.86a4.52,4.52,0,0,1-1-3.33c-.37.57-1.05,1.2-1.77.76-1.67-1.33.38-1.55-.19-2.83-.93.3-1.44-1.24-2.6.1-.47-.4,0-1.12.08-1.65-1.34-.12-4.26-3-4.4-.75l.15.27-.19-.05h0a9.11,9.11,0,0,1-4.62-3,12.17,12.17,0,0,0-4.31-3.46l.32-.5c-2.14-.62-4.3-2.12-6.23-1.8a1.61,1.61,0,0,1-.18-2.16c-1.67-.38-2.13.13-3.77-1.85,1.93-.14-.08-1.08,1.85.13-.83-.73-1.25-1.37-1.8-1.78a3.44,3.44,0,0,0-2.67-.3c1.37-1-.65-2.43-1.77-2.47l.91,1.64a11.88,11.88,0,0,1-2.87-1.35l1.32-1.61c-1.57-2-3.83-1.9-5.88-1.75s-3.83,0-4.78-2.38c-1.57.94,2,1.7.41,2.9-1.79-.89-2.92-4.28-3.54-4.5-2.39-1.89-3.36,2.06-5.92.52a2.25,2.25,0,0,1-2.22,2.81c-1.85-.71-1.68-3.47-.3-3.73.49.06.66.33.59.56.69-.1,1.61-.19,1-1.12l-.43.62c-.8-.94-3.56-1.53-2.66-2.51-1.66.3-.9,1,.12,1.61-2.31-1.65-4-.88-6.5-2.1.35.47.59,1.37.17,1.28-3.72-1.57-1.94,1-4.58.93-1.33-1.3.91-2.49-1.87-2-1.54-.92-.11-1.94.63-2.4-2.63,1-4.51-1.41-5.94-1.83l1.38-.43a5.26,5.26,0,0,1-2.13.12l.63,1.48c-.74-.32-1.4-.35-1.34-1-.86.88.41,2.4-1.23,3.57-1-.78-3.09.58-3.35-1.33,3.16.85-.26-1.92,2.48-2a2.69,2.69,0,0,1-1.94-.15c-.11-.22.13-.39.34-.48-3-1.84-1.52,2.08-4.68,1.95.42-1.06-.71-2-1.24-1.82,1.29,0,.58,1.79-.58,2.58-2-.81-2.2.66-3.25.58l1.21.36c-.39,1.08-1.39,1-2.77,1.33-.15-.82,1.25-.6.74-.95-.75.95-1.63.49-2.61,0s-2.06-1.06-3.1-.36c-1.06-.64-.24-2-1.18-2.4-2.34,1.56-2.83-1.28-5.31.2.92,1.33,1,1-.64,2.58,1.36-.49,2.72-1.07,4.1-1.49-.84.75-1.67,1.56-2.48,2.36,1.25-.16,2.57-1.19,3.35-1-1.17,1.26-1.06.89-.36,2-1-1-1.78-.61-2.61-.09s-1.67,1.1-2.75.51L117,45a3.65,3.65,0,0,0-2.25-.11,8.57,8.57,0,0,0-2,1,8.61,8.61,0,0,1-4.81,1.61c.45.1.91.24,1.36.36-.25,1.45-2.33.7-3.44,1.54-.15-1.18-1-1.42-1.73-2,.28.84-2.87.55-2.6,3l-2.1-1c-3.27.27-2.53,4.2-5.48,4.79.46-1.51-1.12-1.87.54-3.4-1,.32-1.92.41-1.67,1.19-.81-.49-2.16,2.39-3.4,1.68-.22.64.09,1.86-1,2.18a.85.85,0,0,1-.2-.55c.2.55-1.36,1.39,0,2.25-2.11-1.17-4.13-.31-6,.71s-3.66,2-5.56,1.23c-1.8,1.37-4,2.89-5.66,4-.07-.37-.29-.51.1-.6-3,.44.22,3.77-3,4.29-2.35-.78.86-1.76-.36-1.85-1.2-1.56-1.94-.92-2.75,0S63.34,67.35,61.81,67l.31-.47C60,66.29,59.68,70,57.36,71.3a.91.91,0,0,0-.33-.48,9.74,9.74,0,0,1-1.57,3.91c-.78,1.25-1.78,2.34-2.54,3.39-.38-1.68.35-1.37-1-2.24-.72.91,1.83,1.7.43,3.49-1.09-.16-2.8.35-4.06-.74l1.57-1.48c-2.24-.88-2.08,1.88-3.16,2.37l-.53-.8c-2.2,2.55-.64,4.23-3.24,6.59l.75.24c.36,3-2,.24-2.11,2.83l-2.13-1.2C38.92,88.47,38.16,92,37,94c-.5-2.08.55-4.73.92-6.66-.89.92-2.73,3.39-2.28,4.64.16-.54.15-1.4.75-1.55a7.85,7.85,0,0,1-1.77,6.42c-1.66-1.6-2.91-.49-4.23.94s-2.57,3.26-4.58,3A12.06,12.06,0,0,1,24.45,104a21.54,21.54,0,0,1-2.11,2.74,31.18,31.18,0,0,0-4.41,6.06c2,0,1.86.38,1.62.9s-.54,1.24,1.15,2c-.34,1.18-.6,1.56-.86,1.55-1.19.75-2.43,1.5-3.62,2.31-1.34.34-.24-1.41-1-1.66-1.42,2.33-1.88.36-3.53,1.6,1.34.21,1.32,1.65.22,2.86L14.34,121a2.58,2.58,0,0,1-2,3,2.57,2.57,0,0,0-1.86,3.09l-.63-1.56a44.12,44.12,0,0,1-1.12,4.54c-.32,1.82-.37,3.72.72,5.08-.51.19-1.61.32-1.59-.58a9.64,9.64,0,0,0-.57,1.72,15.89,15.89,0,0,0-.26,1.87c-.11,1.28-.12,2.6-.16,3.86-.05,2.54-.08,4.9-1.39,6.47l-.8-.54c0,.91,1.31,1.82.25,2.72-.36-.13-.82-.52-.94-.13.22.52,1.13,2.57.42,3.61L3.62,153A6.43,6.43,0,0,0,3,156a9.62,9.62,0,0,0,.63,2.73c.31.87.68,1.73,1,2.59a12.66,12.66,0,0,1,.64,2.7c-2.63-.27-3.76,3.26-4.32,5.05L.55,169a18.22,18.22,0,0,0,.92,7.2c.78,2.21,1.71,4.33,2.31,6.73-1.31,1.58-1.44,4.2-1.33,7,.1,1.4.26,2.87.32,4.3,0,.72,0,1.42,0,2.11a14.43,14.43,0,0,1-.12,2c.34-.82,2.05-.21,2.46.59-.32,1.23,2.36,2.75,0,3l0-.42c-2.22,1.32-1,3.54-.67,5.37l3.15-.44c-1.77,2.88-.38,5.86.84,8.48s2.71,4.85,1.19,6.81c1.17.82,1.7,2.16,2.85,2.94l-1.6.57a25.09,25.09,0,0,0,3.32,8.26l-1.44-.23c.85,2.16,5.69.43,6.67,2.19l-2,1.72c.88,1.75,1.42,3.71,2.17,5.56a11,11,0,0,0,1.43,2.6,7.44,7.44,0,0,0,2.41,2c-.34.14-1,.44-1.46,0,.48.79,1.08,2.56,1.92,3.79s1.92,1.89,3.15.62c-1.81,1.33,2.14,3.47,4.26,4.45l-1.52.77c2.79.09,3.27-.24,5.24,1.3.21.58-.71,1.25-.87.38.59,2,2.2.12,3,2.47l-1.38,0c1.22,1.59,1.55,1.1,3.19,1.09,1.31.48,2.26,3,1.37,4.28.85-.44,2.48-.52,3,.63a1,1,0,0,1-1.11.43,5.19,5.19,0,0,0,3.12,2.55c1.1.45,2,.87,2.32,2.24a1.34,1.34,0,0,0-.37,1A20.68,20.68,0,0,1,44.09,270c-1.07,1.1.33,2.81-2.4,3.15,1,.19,2.54.34,3.89.68a4.8,4.8,0,0,1,3.2,1.76,1.85,1.85,0,0,1-.14.59h-.28a1.57,1.57,0,0,0,1.17.69,4.84,4.84,0,0,0,1,1.49c-.61,1.14,1.54,2.09,2.36,2.81,1-1.38,1.91-.3,1.72-2.21.06.2-.28,0-.88-.35a1.35,1.35,0,0,0-.47-.15l.15-.07c-.58-.4-1.34-.93-2.16-1.57,1.2-.12,2.34-.15,2.69,1.31,1.1-.51,2.25-1,2.83-1.23-.34,2.78,1.22,5.45.71,6.85,3.2,1.21,6.85,3.86,10.22,2.26,1,.13.44,1.31.48,1.92-.62,0-1.16-.35-1.63-.13,2,.26,4.94,2.49,6.38.78,1.55,2-2.15,1.19.86,2.36l-.7.4c2,3,5,3,7.93,2.86a14.06,14.06,0,0,1,4.31.35,6.91,6.91,0,0,1,3.94,2.89c-.35-.44-.53-.65-.49-1A18.48,18.48,0,0,0,94.28,299a46.26,46.26,0,0,0,6,1.38c2,.44,4,.76,5.93,1.31a26.79,26.79,0,0,1,2.84,1,17,17,0,0,1,2.76,1.39c2.1,1,2.57-.29,4.06-1.18l.22,1.85,2.57-1.78c1.71-.56,3,.76,4.42,1.79s3.07,1.95,5.23.65l-.47-1.25c1.47.31,4.71-.59,4.43.81.16-.21.51-1.25,1.08-.6l0,.95c1.23-.48,2.44-1.09,3.64-1.68,2.85.58-.38,3.79,3.85,3.81,1.57-.42,4.27-2.92,3.63-3.53a1.84,1.84,0,0,1-1.72-1.48l1.35-.54c.06-2.8.8-5.69-2.51-7.52l-2.16,1.79-.76-1.33,1.86-.15c-1.11-1.24-1.73-.09-2.47.72a2.28,2.28,0,0,0-1-1.46q-1.07,1.38-2.16,2.76c-.27-1.1,1-2.19-.49-2.78-1,1.21,1,2.48-.73,3.25-1.08-1.3-.73-2.33-2-1.27a1.25,1.25,0,0,1,.62-1.48c-1.14.83-2.95.29-3.6,1.76-1-1.64-3.81.12-3.5-2.51a5.5,5.5,0,0,1-3.18,1.94c2.19-2.92-3.79-.68-2.86-4a3.45,3.45,0,0,1-3.53,1.41,9.42,9.42,0,0,0-4.22.21c.18-.2.53-.6.72-.42-1.32-.46-1.53-1.4-2.26-2.12-.66,2.26-2.88,2.3-4.38,3.44-1.12-2.59,1.67-2.45,1.65-4.69-.18.94-1,1.24-1.76,1.51s-1.45.46-1.37,1.31c-.89-1.71-.91-1-1-3-1,2.77-1.28.15-2.82,1.59-1.39-1.9.34-2.74-1.87-2.53C97.69,287.21,99.71,286.79,99.71,286.79ZM55.16,267.44l0,0,.84.6ZM52,264.66a11,11,0,0,0,1.28,1.3c-.28.52-.81.87-1.1.56C52.64,266.39,52.15,265.45,52,264.66Zm-.66,14.9c-.72-.27-.7-.67-.56-1a9.48,9.48,0,0,0,1.12.62,1.36,1.36,0,0,0,.2-.11A2.86,2.86,0,0,1,51.37,279.56Z"/><path class="cls-1" d="M53.77,278.63a.9.9,0,0,1,.3.08,4.37,4.37,0,0,0-.09-.56l-.53.26Z"/><path class="cls-1" d="M212.31,73.85l-.05-.09a.8.8,0,0,1,0,.31A1.09,1.09,0,0,1,212.31,73.85Z"/><polygon class="cls-1" points="23.61 215.86 23.21 216.01 23.68 216.22 23.61 215.86"/><path class="cls-1" d="M225.89,94.16a.84.84,0,0,0-.12.52A1.09,1.09,0,0,0,225.89,94.16Z"/><path class="cls-1" d="M232,102.12l.35,1.5A6.15,6.15,0,0,0,232,102.12Z"/><path class="cls-1" d="M235.74,108.87a3.9,3.9,0,0,0,.68-.28s0,0,0,0Z"/><path class="cls-1" d="M132.63,56.77a.75.75,0,0,0-.29.09C131.67,57.2,132.12,57.06,132.63,56.77Z"/><path class="cls-1" d="M168.85,57.58a6.24,6.24,0,0,1-1.35.44C168.09,58.33,168.57,58.5,168.85,57.58Z"/><path class="cls-1" d="M94.45,65.86v0l-.23.09Z"/><path class="cls-1" d="M165.88,57.54a1.83,1.83,0,0,0,1.62.48A2.56,2.56,0,0,0,165.88,57.54Z"/><path class="cls-1" d="M249.41,138.81l0,.37a.54.54,0,0,1,.27,0Z"/><path class="cls-1" d="M249.72,139.14l.31.33C250,139.29,249.91,139.14,249.72,139.14Z"/><path class="cls-1" d="M250.69,140.16l-.66-.69C250.11,139.75,250.17,140.12,250.69,140.16Z"/><path class="cls-1" d="M246.63,129.09l-.61.13A1.57,1.57,0,0,0,246.63,129.09Z"/><path class="cls-1" d="M245.23,126.35c.17.73-.41,2.18.31,3l.48-.1C245,129.13,246.46,126.57,245.23,126.35Z"/><path class="cls-1" d="M245.91,111.14l.9,2.62c.34-.73.79-1.72,1.54-.7C248.35,109.07,247.43,114.4,245.91,111.14Z"/><path class="cls-1" d="M242.15,103.45c1.08,1.06.78-.54,1.13-.68C242.26,102.31,242,102.21,242.15,103.45Z"/><path class="cls-1" d="M197,62.29l.87-1.27C196.73,60.67,197.56,61.53,197,62.29Z"/><polygon class="cls-1" points="183.23 64.38 183.8 65.66 184.83 64.58 183.23 64.38"/><polygon class="cls-1" points="180.98 51.69 181.53 51.67 179.52 51.5 180.98 51.69"/><path class="cls-1" d="M78.09,56.69l1.13,1.57C79.77,57.63,79,55.64,78.09,56.69Z"/><path class="cls-1" d="M42.45,84.27c-1-.31-2.33.19-2.2,1.4C41.05,85,42.27,84.81,42.45,84.27Z"/><path class="cls-1" d="M5.74,209.32l-.82-.74c.29.52.6,1,.94,1.56Z"/><path class="cls-1" d="M144.23,228.18a.75.75,0,0,0-1.38.48l1.4,1.14Z"/><path class="cls-1" d="M139.54,234c.52,1.37,1.61,3,3.26,2.57-1.31-1.48-.6-1.61-2.17-3.3.06-1,1-1.59,1.52-1.27-.32-.45.76-1.42-.1-2.22a3.55,3.55,0,0,0-1.46,4.54C140.16,234.62,139.82,234.16,139.54,234Z"/><path class="cls-1" d="M158.49,330.68l-.25-.65A1.51,1.51,0,0,0,158.49,330.68Z"/><path class="cls-1" d="M209,368.74c-.47-.13-.72-.05-.8.08C208.66,368.88,209.05,368.92,209,368.74Z"/><path class="cls-1" d="M219,373.83l-.61-.28C218.58,373.76,218.8,373.91,219,373.83Z"/><path class="cls-1" d="M158.49,330.68l.64,1.67C159.63,332.1,158.91,331.41,158.49,330.68Z"/><path class="cls-1" d="M141.2,248.11a2.43,2.43,0,0,0-.34-.92,8.21,8.21,0,0,1,.08.84Z"/><path class="cls-1" d="M142.82,307.17l-.22-.47a3.62,3.62,0,0,0-.79-.13Z"/><path class="cls-1" d="M135.58,286.58c0,.5,1.46.34,2.1.37a1.56,1.56,0,0,1-1.18-.81A2.44,2.44,0,0,0,135.58,286.58Z"/><path class="cls-1" d="M135.13,252.29l-.16-.62C135,251.83,135.06,252.1,135.13,252.29Z"/><path class="cls-1" d="M149.85,321.14a1.19,1.19,0,0,0-.32.44A.86.86,0,0,0,149.85,321.14Z"/><path class="cls-1" d="M156.3,207.86c-.08-.06-.14-.07-.21-.12C156.15,207.91,156.22,208,156.3,207.86Z"/><path class="cls-1" d="M140.7,227.12l0-.34a6.59,6.59,0,0,0-.73-.3Z"/><path class="cls-1" d="M238.87,379.23l-.08,0C238.23,379.29,238.54,379.3,238.87,379.23Z"/><path class="cls-1" d="M368.32,268.68c-1.38,2-1.39-3.54-3-.49C365.91,267.92,367.34,271.26,368.32,268.68Z"/><path class="cls-1" d="M141,248.62a6,6,0,0,1-.08.83A2.22,2.22,0,0,0,141,248.62Z"/><path class="cls-1" d="M365.34,268.19h0l-.16.31Z"/><path class="cls-1" d="M285.77,373.23a1.68,1.68,0,0,0-.64-.43C285.19,372.93,285.34,373.06,285.77,373.23Z"/><path class="cls-1" d="M251,376.87l.86.16A3.17,3.17,0,0,0,251,376.87Z"/><path class="cls-1" d="M301.85,364.55c.47-.12.7,0,1.18-.47a.78.78,0,0,0-.25-.07C302.66,364.29,302.43,364.51,301.85,364.55Z"/><path class="cls-1" d="M317.91,354.88a3.4,3.4,0,0,0-.45,0l-.44.4Z"/><path class="cls-1" d="M190.92,169.71a4,4,0,0,1-1.36-.62C190.33,169.78,188.4,171.43,190.92,169.71Z"/><path class="cls-1" d="M140.41,248c.34.14.5.3.54.58a5.76,5.76,0,0,0,0-.59A.55.55,0,0,0,140.41,248Z"/><path class="cls-1" d="M297.52,354.31l2.51-1A15.63,15.63,0,0,0,297.52,354.31Z"/><path class="cls-1" d="M307.6,169l-.62-.2A.71.71,0,0,0,307.6,169Z"/><path class="cls-1" d="M306.83,349a3.94,3.94,0,0,0,1.81,0,1.1,1.1,0,0,0,.07-.48Z"/><path class="cls-1" d="M189.54,169.08h0Z"/><path class="cls-1" d="M177.58,182.79c1.87-1.73-.35-2.16-.67-3.32,2-2.44,2,.07,3.41.1a9.81,9.81,0,0,0,1.15-2.67,4.22,4.22,0,0,1,1.25-2.05c.27.18.56.09.54.59A7.17,7.17,0,0,1,186,172.3a7.85,7.85,0,0,0,3-3.43,1.06,1.06,0,0,1,.52.21,5.27,5.27,0,0,1-1.72-1.91c1-.67,1.27-2.19,2.3-1.41-.64.36-.43.81-.52,1.31l.78-1.12c1.88.86-1.12,1.43-.42,2.5.86-.88,1.71-2,2.57-3a6.64,6.64,0,0,1,2.74-2c1.17,1.29-3.49,2.66-.58,2.73-.94.27-1.87.59-2.78.93,3.24,1.11-1.55.76,1.64,2.13a17,17,0,0,0,2-1.1,12.17,12.17,0,0,0,1.29-1.05,8.61,8.61,0,0,1,3.34-2c.3-1.21-.9-1.11-.58-2.33a4.37,4.37,0,0,1,2.61-1.43,4.24,4.24,0,0,1,2,.5c1.22.55,2.2,1.12,3.51-.71.47-1.43.05-3.55,3.08-3.54l-.19,2.14c3.39-1.15,1-3.33,5-3.37-.41.94-2.5,1.53-1.9,1.56,2.81.65,1.28-1.58,3.1-2.2l.88,1.5c1.8-.63,3.62-1.62,5.55-2.47a37.45,37.45,0,0,1,6-2.26c-.14.54-.75,1.19.33,1.52a26.2,26.2,0,0,1,8.26-1.36c1.43,0,2.85.1,4.24.21s2.73.36,4,.54l1.93-1.54c.46,0,.85.67.36.94,2,.59.1-.92,1.07-1.49,1.15-.08,1.51.87.78,1.3,3.51-1.36,10.37-2.18,13.91-.14l-.78.35c2.78,1,3.74-2.46,6.23-.68l-.56.17c3.09.92,6.42,1.45,9.48,2.36.77.21,1.53.42,2.25.68s1.41.57,2.07.88a12.12,12.12,0,0,1,3.45,2.31c.79-.83,2.19,0,3.56.62s2.65,1.3,3.44,0a22.63,22.63,0,0,1,2.35,2.85,15.36,15.36,0,0,0,3.33,3.13c1.15.71,2.64-.67,4.28-.1l-.72,1.36,2.81-.27c0,.73.07,1.48.08,2.22l1.54.5c-.48-.41-.76-1.3-.45-1.63a6.73,6.73,0,0,1,3.14,2.44c.75,1.06,1.11,2.12.91,2.45l2.74,1.15c.92.38,1.8.84,2.7,1.26-.48.41-1.38,0-2.22-.19,3.4.67-.55,1.63,2.56,2.24-.08-.51.73-.59,1-.79a8,8,0,0,0,1.92,2.62,25.08,25.08,0,0,0,3.05,2.4l-1.05.46c.73.79,1.52,1.55,2.35,2.3l1.27,1.12,1.27,1.17c.85.79,1.74,1.57,2.58,2.41s1.64,1.73,2.43,2.65c-.75-1.63.89-2.54,2-1.56l-.88,1.48c1.38.06-.51-1.53,1.69-.87,1,1.56-.68,2.12-1.73,1.65L334,193c-.31.41-.82.16-1.39.44,1.35.11,1,3.91,3.15,3.95l-.33.38c.69,1,1.31,1.8,1.89,2.54l1.57,2.07c.5.65,1,1.28,1.49,1.93s1,1.42,1.46,2.25c1.26-.63,1.75.86,3.34,1.35.47,1.41.83,3,1.27,4.54a25.28,25.28,0,0,0,1.64,4.78c1.61,2,1.38.2,2.57.91-1.11.67.29,3.88-1.24,2.52.9,1.9,1.37,3.15,2,4.5.32.67.67,1.37,1.12,2.2s.89,1.82,1.51,3c.35-.7.38-1.4.89-1.2.48.89.11,2.29-.53,2.32l-.2-.22c1.71,2.67,1.61,6.32,1.33,9.69-.08,1.69-.3,3.33-.22,4.81a8.86,8.86,0,0,0,.34,2.1,5.55,5.55,0,0,0,.8,1.83l-.15-.25c.57,1.59,1.26,3.19,1.74,4.82-.14,2.29-1-1.31-1.74.4a12.48,12.48,0,0,1,1,3.59,18.66,18.66,0,0,1-.09,3.11c-.15,2-.56,3.81,0,6.05a4.36,4.36,0,0,0-1.17,1.4,6.92,6.92,0,0,0-.72,1.81,27.31,27.31,0,0,0-.54,4.38c-.14,1.56-.23,3.16-.51,4.63a8.8,8.8,0,0,1-1.65,3.73l.92-.05c.6,1.34-.78,1.27-1.21,2,.7.06,1.11-1,1.39-.21a37.1,37.1,0,0,1-1.88,7.37c-.45,1.2-.87,2.42-1.43,3.59s-1.14,2.33-1.73,3.48-1.29,2.26-1.94,3.38-1.31,2.23-2.06,3.29l-2.12,3.21c-.74,1-1.48,2.07-2.18,3.11-1,1.54-.32,2.55.11,3.59s.57,2.07-1.58,3.49l-.67-2a13.71,13.71,0,0,1-1.1,2.65c-.43.85-.91,1.68-1.41,2.49a53,53,0,0,1-3.46,4.59c-1.25,1.44-2.54,2.85-3.72,4.32a35.05,35.05,0,0,0-3.42,4.52c.05-.58-.28-.93.22-1.45-1.93.26-4.18,3.91-3.55,4.68-.95.67-.8-.48-1.66-.4-1.64.46-1.95,3.75-3.38,3.32-.24-.06.1-.56.26-.82-.43,1.08-3.8,2.78-2.2,3.29a14.39,14.39,0,0,0-3.22,2.31,7,7,0,0,1-3,1.89c-.39,2.06-4.37,1.94-3.67,4-1-2.05-5.09.87-6.22,2.54.21-.87-1.68.07-1.49-1.09-1.74,1-3.24,2-2.43,3-2.26-.48-3.68.81-5.07,1.8s-2.61,1.93-4.19.61A64,64,0,0,1,270,366.74c-.12-1.15,1.35-1.4,2.72-1.83s2.7-.79,2.3-1.92c-1.17.52-2.2,1.07-3.17,1.61s-1.92,1-2.86,1.43a14.5,14.5,0,0,1-6.4,1.6c-1.34-.13.63-1.07,1-1.51a29.54,29.54,0,0,1-7.32,1.14c-1.19,0-2.37.08-3.53.21-.58.06-1.16.14-1.73.25s-1.14.19-1.72.34c0-.21.51-.43,1-.6-.89.06-2.07-.36-2,.67l.88-.27c1.46,1.51-3.64,3.07-3.87,3.84,1.66-2.84-4.56-1-1.89-4.58-.6.16-1.37.59-1.28,1.29-.87-.26-1.11-.67-.17-1.4a6.11,6.11,0,0,0-2.68.82,3.36,3.36,0,0,1-2.44.32c.07-.49.68-.61,1-1.16-1.56.79-3.21,1.63-5.6.77.2-.27,0-.71.7-.58a35.39,35.39,0,0,0-5.95.16,18.63,18.63,0,0,1-3-.06,10.07,10.07,0,0,1-3.14-1c1.9-1.72-1.36-1.1-1.08-3-.86,0-1.7-.1-2.55-.19l.69,1.18c-2.07-.73-4.4,0-6-1.24.6,0,1.2-.09,1.81-.18-1.35-.3-2.66-.74-4-1.11l2,1.51c-2.45.09-.59,2.3-3.22.74.65,0-2.13-.81-2.75-2.34h0a4.85,4.85,0,0,1-3.89-.89c-.14-.72,1.19-1.73,1.1-2.2-.82.49-2,0-3.28-.51s-2.55-1-3.54-.61a1.62,1.62,0,0,0,1-1.22l-1.41.66c-.7-.87-.73-1.11-.21-1.71-2.57-1.73-.31,2.55-3-.16.31.05.28-.18.91-.05-2.9-2.33-6.54-3.11-8.95-5.64.28-2.1,2.68,1.34,2.66-.62-4.16-2.4-9.4-4.32-12.65-7.86l.5.77c-1.13.75-1.56-.12-2-1.25s-1-2.5-2.22-2.93c.54.3,1.58-.49,1.26-.39a17.31,17.31,0,0,0-3.73-3.52c-1.45-1.19-3.2-2.43-5.09-4.09l.91,0c-.68-1.9-2.87-4.14-3.76-6-.9-.11-1.5-1.14-1.9,0A9.7,9.7,0,0,0,158,321a10,10,0,0,0-1-2.13,28.36,28.36,0,0,0-2.81-3.54,21.89,21.89,0,0,1-2.73-3.5,7.93,7.93,0,0,1-1.06-4.27c.32.6,1.27,1.17,1,.69-.95-1.31-1.73-2.71-2.6-4.08-.9.82-.38.86-.78,2.17a4.84,4.84,0,0,1-2.44-2.45c1.63,1.71,1.67-.74,1.94-1.86-.27.28-.75.13-1,.35,1-3.14-2.31.47-2.32-3.3l.64,0c-.79-1.09-1.88-2-2.19-3.39,1.07-1,1,1.12,2.1.84-.69-1.81-3.7-2.89-2.89-5,.59.7.92,1.86,1.57,2.53.85-2.3.49-2.4.31-3.84v.14c-.07-1.12-.17-2.23-.21-3.34-.08.3-.14.61-.2.91a3.89,3.89,0,0,1-2.75-3.25,16.11,16.11,0,0,0-.57-2.07,5.4,5.4,0,0,0-1.35-2.15c2.72,2.78,1.33.28,2.86.25.26-.91.5-2.23,1-1.95a2.09,2.09,0,0,1-.58-2.06,2.6,2.6,0,0,0-1-2.48c.47-.17-.18-1.64,1.08-1.45-.64-1.92-.77.57-1.4.48-1.08-1.43-.68-3.32-.44-5.33q.1-.75.15-1.53a10.26,10.26,0,0,0,.07-1.57,7.07,7.07,0,0,0-.89-3.24,16.47,16.47,0,0,0-1.72-4.21,17.37,17.37,0,0,1-.89-1.78,10.88,10.88,0,0,1-.61-2.33c.86-1.18,1.71,1.1,1.71,1.1a8,8,0,0,0,.41-5.29c.38.41.78.06,1.39-.44,0-1.48-1.65-1.18-.72-3a7,7,0,0,1,1.78,1.7,22.76,22.76,0,0,0-.6-2.68,21.45,21.45,0,0,1-.45-2.76c.91-.33,1.09,1.28,1.54,2,0-2,.06-5.26-1.07-6.14l-.75,1.19c.1-.74,1.21-.15,1.35.43a1.6,1.6,0,0,1-1.36,2.41l-.1-1.33c-1.52.4-1.62,1.74-1.41,3.26s.86,3.23.62,4.51l-1.95-1.32,1.41,2.87c-.58.51-1.79.81-2-.52-1.21,1.82.61,1.74-.65,3.29-.19.17-.28.08-.35-.09l.5,1.9c-.42-.39-1.49.24-1.12-.9a5.55,5.55,0,0,0,0,4.16c.33,1.1.62,1.93-.18,2.57l-.12-.28a4.82,4.82,0,0,0,.57,2.09.65.65,0,0,0,.7.31c.52-.05,1.17-.23,2.13,1.46q-1.84,1.22-3.68,2.51l1.54.37c0,.48,0,1.44-.68,1.31,1.2,1.71.64-.35,1.71.6-.58,1.2-.31,2.78-.12,4.13s.27,2.49-.9,2.92c1.26.66.59-2.31,1.72,0-1.25.53-1,1.23-.63,2.07s1.09,1.79.69,2.93c-1.44-.39-1.11-2.51-1.91-.2,1.24.44,1.31,1.47,1.16,2.62s-.41,2.42,0,3.26c.89-.17,1.3.74,1.64,2a23.83,23.83,0,0,0,1.46,4.31c-.69,0,.73,5.71,1.17,8.58l-.31,0c1-.07,1.62.6,2.18,1.51s1,2.07,1.65,2.94a2.07,2.07,0,0,1-2.51-.67c.26.61.55,1.22.82,1.83a3.38,3.38,0,0,1,2,1.72l-1.45.12a10.08,10.08,0,0,0,1.08,1.72l1.35,1.67a11.35,11.35,0,0,1,2.16,4.15c1.21-.47,1.81-4,4.3-1.39-.54.45-1.5,1.15-2.21.48.23.22,1,.66,1.08,1.34l-1.72-.66c.33,1.59,1.25.22,1.76,1.33-.86.48-.15,1.15-.91,1.39-.24-.22-.19-1.14-.76-1.36a6.93,6.93,0,0,1,.57,3.93,1.12,1.12,0,0,1,1.79.1c1.48,2.2-.51,1.41-.1,3,.9.18,1.3,2,2.54,1.17.45.64,0,1.15-.19,1.63a19.36,19.36,0,0,1,2.5,2.57c.9.88,1.65,1.4,1.8.31l-.13-.33c.06,0,.11.09.19.13h0a11.17,11.17,0,0,1,2.48,2.37,34,34,0,0,1,2,2.81,20.34,20.34,0,0,0,4.31,5.33l-.36.34c1.1.79,2.26,1.71,3.35,2.57a8.36,8.36,0,0,0,3.23,1.8c.59.51.8,1.89.16,2.11,1.8,1,2.25.82,4.07,3.25-2.15-.6.08,1-2-.81,1.81,2,1.82,3,4.9,3.65-1.56.45.7,2.45,2,2.88l-1-1.82a17.39,17.39,0,0,1,3.19,2.3l-1.49,1a7.38,7.38,0,0,0,3.12,2.46,17.31,17.31,0,0,0,3.56,1.13c2.38.53,4.41,1.19,5.53,3.59,1.82-.38-2.29-2.07-.49-2.69,2.1,1.31,3.4,4.65,4.14,5,2.83,2.24,3.94-.86,7,1.07-.21-.71,0-2.33,2.66-1.91,2.2,1.08,2,3.43.34,3.31-.58-.17-.78-.45-.69-.63-.83-.09-1.93-.24-1.22.72l.52-.44a13.62,13.62,0,0,0,2.33,1.56c.81.49,1.38.89.83,1.23,2,.06,1.09-.67-.15-1.4a13.75,13.75,0,0,0,3.84,1.68,31.68,31.68,0,0,1,4,1.38c-.42-.45-.7-1.25-.2-1.11,2.26,1,2.85.86,3.28.56s.68-.77,2.31-.56c1.62,1.28-1.13,2,2.28,1.93,1.87,1,.12,1.63-.79,1.93a5.92,5.92,0,0,1,2.24.11,8.52,8.52,0,0,1,1.94.66,28.25,28.25,0,0,0,3.08,1.51l-1.69.21a9.09,9.09,0,0,1,2.61.14c-.25-.42-.5-.88-.75-1.31.91.37,1.72.42,1.64.92,1.07-.66-.49-2,1.55-2.87,1.18.72,3.83-.19,4.13,1.36-3.89-.91.3,1.65-3.09,1.53a5.11,5.11,0,0,1,2.4.3c.13.18-.17.32-.44.37,3.74,1.68,1.92-1.65,5.83-1.36-.54.86.85,1.74,1.51,1.54-1.6,0-.7-1.49.76-2.15,2.51.72,2.73-.48,4-.39l-1.5-.34c.51-.87,1.75-.74,3.46-1.1.17.68-1.55.53-.93.81.94-.81,2-.45,3.24,0a4.69,4.69,0,0,0,3.83.22c1.3.49.26,1.65,1.41,2,2.93-1.38,3.45.84,6.56-.51-1.1-1.06-1.2-.75.85-2.2l-5.1,1.54,3.11-2.17c-1.55.17-3.19,1.22-4.16,1.08,1.49-1.12,1.34-.85.5-1.72,1.15.75,2.18.35,3.22-.13a4.75,4.75,0,0,1,3.41-.65l.42,2.92a8.62,8.62,0,0,0,5.27-1.18,16.65,16.65,0,0,1,5.91-2.08c-.55,0-1.09,0-1.64-.08.34-1.28,2.84-1,4.23-1.86.14,1,1.19,1.06,2,1.45-.3-.67,3.44-1.1,3.21-3.1.82.16,1.66.37,2.49.49,3.89-1,3.15-4.21,6.65-5.46-.59,1.45,1.27,1.38-.74,3.12,1.16-.51,2.28-.82,2-1.45.47.13,1.14-.52,1.85-1.19s1.45-1.35,2.18-1.2c.28-.63,0-1.62,1.24-2.19.23.11.22.44.22.44-.21-.42,1.61-1.63,0-2a6.41,6.41,0,0,0,3.54-.51,16.12,16.12,0,0,0,1.72-.85c.55-.34,1.09-.72,1.63-1.1a31.43,31.43,0,0,1,3.18-2.05,5.76,5.76,0,0,1,3.13-.9c.51-.46,1.05-1,1.61-1.44l1.62-1.52c1.08-1,2.18-2,3.1-2.79.07.33.31.39-.11.61,3.2-1.55-.23-3.51,3.33-5.27,1.25-.09,1,.42.64.9s-.94.91-.27.74c1.3,1,2.09.12,2.95-1.07s1.8-2.67,3.37-3l-.31.6c2.19-.72,2.58-4.38,4.85-6.73,0,0,.11.3.35.33a15.52,15.52,0,0,1,1.49-4.58c.74-1.62,1.72-3.17,2.4-4.6.46,1.54-.28,1.56,1.1,1.84.67-1.26-1.9-.9-.59-3.37,1.08-.34,2.77-1.63,4-1.11-.46.76-1,1.49-1.47,2.23a2.09,2.09,0,0,0,1.95-1.6,6.65,6.65,0,0,1,1-2.31l.56.57c2-3.62.28-4.71,2.57-8.42l-.74.11c-.57-3,1.89-1.26,1.69-4l2.09.23c.07-.41.15-1,.26-1.64s.16-1.42.25-2.23a45,45,0,0,1,.81-4.66c.8,2,.1,5.35,0,7.62.67-1.44,2.05-5,1.48-6.11-.07.65.05,1.58-.49,2a12.54,12.54,0,0,1,.67-7.84c1.73.92,2.6-.94,3.47-3.18s1.58-4.89,3.34-5.62a16.69,16.69,0,0,1,.18-2.13,20.89,20.89,0,0,1,.32-2.08c.28-1.38.72-2.74,1.13-4.14s.81-2.83,1.19-4.32a27.13,27.13,0,0,0,.76-4.7c-3.22,2,.13-1.92-3-1.81,0-1.5,0-2.06.23-2.18.69-1.46,1.41-2.94,2.09-4.45.45-.53.62-.17.75.32s.2,1.1.54,1c.39-3.35,1.35-1.36,2.21-3.59-1.1.44-1.55-1.2-1.11-3.13l-1.44,2.7a4.48,4.48,0,0,1,.46-4.38,4.31,4.31,0,0,0,.32-4.43l1,1.45c-.61-2.41-.69-9.08-3.51-11.07.29-.47,1-1.16,1.4-.13a17.58,17.58,0,0,0-1-4.45c-.5-1.49-1-3-1.66-4.41a38.74,38.74,0,0,1-1.54-4.14,10.51,10.51,0,0,1-.65-3.75l.84.21c-.52-1-1.83-1.4-1.57-2.9.32,0,.85.19.73-.3-.43-.47-2.16-2.3-2.21-3.79l1.18.88a10.3,10.3,0,0,0-1.25-3.62,16.19,16.19,0,0,0-1.94-2.7,32.3,32.3,0,0,1-4.28-5c1-.48,1.15-1.78,1-3.24a18.61,18.61,0,0,0-1.13-4.14l.31-.08a27.07,27.07,0,0,0-2.49-4,42.21,42.21,0,0,0-2.89-3.17c-1-1-2.05-1.9-3.1-2.86s-2.08-1.95-3.21-3a9.6,9.6,0,0,0-1.32-3.63,34.06,34.06,0,0,0-2.89-4c-1.07-1.39-2.35-2.68-3.49-4s-2.26-2.65-3.14-3.95c.4.93-1.3,1.13-2.22.55-.7-1.35-3.93-1.46-2.42-2.84l.36.37c.49-2.18-2.06-3.79-3.87-5.21l-1.94,1.84a9,9,0,0,0-3.11-4.17,23.65,23.65,0,0,0-4.66-2.85,44.53,44.53,0,0,1-4.37-2.32,4.86,4.86,0,0,1-2.43-2.79c-1.56-.17-3.16-1-4.73-1l.7-1.23a39.25,39.25,0,0,0-4.48-2.55c-.74-.35-1.51-.7-2.4-1.06l-1.41-.55-1.66-.53,1.33-.58c-2.64-1.09-4.77,2.51-7.16,1.77l0-2.24c-2.31-.74-4.49-2-6.81-2.77a19.14,19.14,0,0,0-3.53-1,11.91,11.91,0,0,0-3.72,0,1.1,1.1,0,0,1,1.2-.77c-2.2-.65-8.57-3-8.16,0,.23-1.94-5-.83-7.6-.24l.52-1.36c-2.35,1.63-2.44,2.12-5.49,2.42-.71-.22-.58-1.15.36-.74-2.38-.83-1.91,1.28-4.79.48l1.09-.87c-2.48-.13-2.29.3-3.62,1.4-1.52.62-4.65-.19-5.11-1.41a3,3,0,0,1-3,1.69c-.24-.45.26-.79.51-1a8,8,0,0,0-2.75.07,11.87,11.87,0,0,0-2.16.74,5.51,5.51,0,0,1-4,.52,1,1,0,0,0-.61-.73,35.72,35.72,0,0,1,5.68-.6c-.14-1.28-2.87-1.14-.94-3.19-1,.63-2.4,1.59-3.82,2.36a8.29,8.29,0,0,1-4.22,1.43,1.51,1.51,0,0,1-.43-.38l.24-.19a2.63,2.63,0,0,0-1.59.52,8.39,8.39,0,0,0-2.2.12c-.54-.95-3.17.11-4.47.46.47,1.33-1.27,1.59.61,2.26-.23,0,.19-.24,1-.52a2.09,2.09,0,0,0,.52-.27l-.06.14c.84-.24,1.94-.54,3.19-.86-.86.94-1.77,1.77-3.38,1.35-.44,1-.9,2.16-1.18,2.69a13.3,13.3,0,0,0-3.9-1.37c-1.32-.33-2.43-.49-2.86-1-1.82,1-4.07,1.91-6,3.11a15.19,15.19,0,0,0-2.59,1.86,6.56,6.56,0,0,0-1.57,2.35c-.89.78-1.51-.15-2.07-.35.49-.51,1.23-.8,1.4-1.29-.9.8-2.46,1.49-3.67,2.39s-2.19,1.76-2,2.7c-2.94.58.63-2.28-2.72-.13l.19-.77a10.63,10.63,0,0,0-5,2.23,29.83,29.83,0,0,0-3.47,3.81,24.53,24.53,0,0,1-3.48,3.88,12.86,12.86,0,0,1-5.28,2.74c.62-.18.92-.28,1.21-.12-.54.3-1.09.61-1.61.94s-1,.72-1.51,1.1c-1,.75-2,1.55-2.9,2.39a75.25,75.25,0,0,0-5.19,5.52c-3.37,3.77-6.36,7.73-10.4,10.79-2,2-1.26,2.89-1.49,4.76l-1.59-.36c-.06,1.12-.07,2.26-.1,3.37a4.85,4.85,0,0,1-1.55,2.43,26.16,26.16,0,0,1-2.31,1.88,10.9,10.9,0,0,0-2.24,2.21,6.58,6.58,0,0,0-1,3.45l1.21-.14a27.71,27.71,0,0,0-1.51,3.24c-.46,1.09-.92,1.9-1.39,1.52.09.25.72,1-.05,1.43l-.75-.27c-.1.79-.21,1.57-.29,2.35l-.18,2.36c-.89,1.53-1.58,1.13-2.28.94s-1.5-.2-2.4,2.27c-.32,2,.49,5.93,1.22,5.39.27-.73,1.08-1.72,1.85-1.54l-.14,1.76c2.13,1,4,2.81,6.82-.49l-.48-3.11,1.38-.46c-.27.73-.48,1.48-.7,2.23,1.4-.92.82-2,.56-3.11a2.09,2.09,0,0,0,1.58-.64c-.37-1.11-.74-2.24-1.09-3.38,1,.05,1.2,1.81,2.38.33-.43-1.57-2.38.34-2.14-1.88,1.52-.82,2.14-.09,2-1.9.63,0,.85.51.84,1.18a7.89,7.89,0,0,1,.48-2.47,2.56,2.56,0,0,0,0-2.17c.9-.33,1.35-1.42,1.82-2.29s1-1.47,2-.88a7.42,7.42,0,0,1,.26-4.15c.56,1.7,1.15.66,2-.48s1.74-2.46,2.76-1.43c-.56-1.38.12-2.8,1-4.27.44-.74.91-1.51,1.37-2.26a8.73,8.73,0,0,0,1.07-2.33c0,.25.14.75-.12.89,1.21-1.23,2.08-1.18,3.09-1.75-1.37-1.41.05-3.73.12-5.65,2.79-.34.87,2.51,2.67,3.2-.63-.48-.34-1.44-.05-2.3s.6-1.63-.13-1.82c2-.37,1.38-.62,3.12-.09-1.55-1.91.7-1.39.64-3.36,2.54-.75,2,1.24,3.36-1.05C178.61,180.61,177.58,182.79,177.58,182.79ZM229.19,152v0l-1.24.31Zm5.14-.88a21.66,21.66,0,0,0-2.25.26c-.26-.44-.15-1,.38-1C232.23,150.7,233.5,150.81,234.33,151.11Zm-13.14-7.37c.82-.4,1.18-.2,1.37,0a14.86,14.86,0,0,0-1.49.53c0,.05,0,.12-.06.19A1.9,1.9,0,0,1,221.19,143.74Z"/><path class="cls-1" d="M220.08,145.9a3,3,0,0,1-.32.19,4.36,4.36,0,0,0,.59.17l.19-.49Z"/><path class="cls-1" d="M158.19,329.92l.05.11a.54.54,0,0,1,0-.31C158.24,329.82,158.2,329.85,158.19,329.92Z"/><polygon class="cls-1" points="302.38 166.69 302.55 166.38 302.01 166.43 302.38 166.69"/><path class="cls-1" d="M147.54,302a.8.8,0,0,0,.19-.49A.92.92,0,0,0,147.54,302Z"/><path class="cls-1" d="M143.71,290.13V288.3A10,10,0,0,0,143.71,290.13Z"/><path class="cls-1" d="M142.13,280.68a1.89,1.89,0,0,0-.63-.06v0Z"/><path class="cls-1" d="M250.25,367.46a1,1,0,0,0,.36-.06C251.46,367.13,250.88,367.25,250.25,367.46Z"/><path class="cls-1" d="M205.75,361.7a9.54,9.54,0,0,1,1.6,0C206.65,361.26,206.09,361,205.75,361.7Z"/><path class="cls-1" d="M297.25,354.42a0,0,0,0,0,0,0l.26-.14Z"/><path class="cls-1" d="M209.32,362.46a3.29,3.29,0,0,0-2-.78A4.77,4.77,0,0,0,209.32,362.46Z"/><path class="cls-1" d="M142.53,239.77l.13-.44a.35.35,0,0,1-.21-.1Z"/><path class="cls-1" d="M142.45,239.23l-.06-.52C142.34,238.94,142.31,239.14,142.45,239.23Z"/><path class="cls-1" d="M142.27,237.59l.12,1.12C142.48,238.35,142.62,237.91,142.27,237.59Z"/><path class="cls-1" d="M140.32,252.16l.5.17A1,1,0,0,0,140.32,252.16Z"/><path class="cls-1" d="M140.25,256c.13-.92,1.22-2.23,1-3.51l-.4-.15C141.55,253,139.4,255.08,140.25,256Z"/><path class="cls-1" d="M134.63,272.64c0-1.13.06-2.27.09-3.41-.49.63-1.15,1.49-1.41-.05C132.07,273.63,134.42,268.19,134.63,272.64Z"/><path class="cls-1" d="M135.52,283.19c-.58-1.76-.77.18-1.09.15C135.16,284.38,135.35,284.62,135.52,283.19Z"/><path class="cls-1" d="M173.69,347.93l-1,.85C173.92,349.57,173.05,348.41,173.69,347.93Z"/><path class="cls-1" d="M189,351.24c-.22-.45-.44-.9-.63-1.38l-1.17.62C187.79,350.75,188.38,351,189,351.24Z"/><polygon class="cls-1" points="191.52 363.42 190.88 363.26 193.2 364.05 191.52 363.42"/><path class="cls-1" d="M315.87,357.83l-1.23-1.06C314,357.51,314.79,359.12,315.87,357.83Z"/><path class="cls-1" d="M352.15,315.73a2.33,2.33,0,0,0,1.91-2.54C353.41,314.26,352.3,315.09,352.15,315.73Z"/><path class="cls-1" d="M321.26,164l1.22.28c-.66-.32-1.31-.67-2-.95C320.75,163.5,321,163.71,321.26,164Z"/><path class="cls-1" d="M139.6.24c-.62-.2-2-.08-1.76.47l2.4.4Z"/><path class="cls-1" d="M135.14,4a8.16,8.16,0,0,0,5.37,1c-2.28-.64-1.32-.8-4-1.5-.28-.55.77-1,1.65-.87-.61-.2.54-.87-1-1.17-1.86.73-1.93,1.64-.41,2.6A3.39,3.39,0,0,1,135.14,4Z"/><path class="cls-1" d="M131.81,58.26l.24-.35A.56.56,0,0,0,131.81,58.26Z"/><path class="cls-1" d="M130.93,91.89a.45.45,0,0,0-.42-.38C130.64,91.75,130.76,92,130.93,91.89Z"/><path class="cls-1" d="M128.83,97.63a2.92,2.92,0,0,0,.13-.34C128.78,97.42,128.68,97.55,128.83,97.63Z"/><path class="cls-1" d="M131.81,58.26l-.66.9C131.84,59.22,131.66,58.7,131.81,58.26Z"/><path class="cls-1" d="M140.79,11.46a1.55,1.55,0,0,0-.61-.48,3.28,3.28,0,0,1,.24.45Z"/><path class="cls-1" d="M129.94,43.43v-.27a8.71,8.71,0,0,0-.89-.23Z"/><path class="cls-1" d="M129.47,32.06c-.07.25,1.82.34,2.65.44-.78-.14-1.15-.33-1.3-.56A8.32,8.32,0,0,0,129.47,32.06Z"/><path class="cls-1" d="M132.74,14l-.28-.32A2.67,2.67,0,0,0,132.74,14Z"/><path class="cls-1" d="M129.63,51.58a3.58,3.58,0,0,0-.65.1A2.27,2.27,0,0,0,129.63,51.58Z"/><path class="cls-1" d="M137.83,369.81h-.12C137.79,369.88,137.85,369.9,137.83,369.81Z"/><path class="cls-1" d="M131.86,383l-.48-.18-6,0Z"/><path class="cls-1" d="M126.87,108.14a.13.13,0,0,0,0,0C126.71,107.82,126.75,108,126.87,108.14Z"/><path class="cls-1" d="M129.17,204.61c1.2-1.09,1.56,1.78,2.89.13C131.54,204.9,130,203.25,129.17,204.61Z"/><path class="cls-1" d="M140.52,11.76a1.42,1.42,0,0,1,0,.46A.51.51,0,0,0,140.52,11.76Z"/><path class="cls-1" d="M132.06,204.74h0l.12-.17Z"/><path class="cls-1" d="M128.16,132.35a2.29,2.29,0,0,0,.67-.24A1.45,1.45,0,0,0,128.16,132.35Z"/><path class="cls-1" d="M130.2,114.32l-.21.44A.86.86,0,0,0,130.2,114.32Z"/><path class="cls-1" d="M130.42,141.72c-.11.24-.32.32-.11.66l.18-.11C130.28,142.15,130.18,142,130.42,141.72Z"/><path class="cls-1" d="M130.52,151.47a3,3,0,0,0,.3-.18l-.09-.31Z"/><path class="cls-1" d="M140.7,340.19a5.49,5.49,0,0,1-1.25.45C140.44,340.49,140.87,341.92,140.7,340.19Z"/><path class="cls-1" d="M139.67,11.47c.5.06.75.14.85.29a2.07,2.07,0,0,0-.1-.33A1.93,1.93,0,0,0,139.67,11.47Z"/><path class="cls-1" d="M142.38,142.12l-.25,1.54A5.17,5.17,0,0,0,142.38,142.12Z"/><path class="cls-1" d="M139.73,270.25l.14.36A.33.33,0,0,0,139.73,270.25Z"/><path class="cls-1" d="M142.28,148.26a2.7,2.7,0,0,0-1,.87,1.12,1.12,0,0,0,.38.18Z"/><path class="cls-1" d="M139.43,340.64h0Z"/><path class="cls-1" d="M143.29,350.84c0-1.48-1.95-.69-3.09-1-.59-1.76,1.43-.81,2.41-1.41-.56-1.1-2.36-1.94-2.3-2.76.32-.07.43-.22.83,0-1.57-1.16-.25-3.45-2.16-4.8a1.18,1.18,0,0,1,.45-.18,9.07,9.07,0,0,1-2.54.21c0-.66-1.19-1.23,0-1.48,0,.41.46.44.84.63l-.54-.69c1.7-.63.63.94,1.91.94-.63-1.35-2.08-2.92-1.62-4,1.62-.22.64,2.42,2,1l-.56,1.6c2.58-1.22-.13,1,2.64-.15.33-2.11-1-2.36-.66-4.46-.92-.48-1.31.15-2.22-.32-1.67-3,3.82-2.35,1.62-4.55-1.05-.57-3-.79-2-2.36l1.72.54c0-2.05-2.46-1.17-1.44-3.31.66.38.62,1.61.8,1.3,1.23-1.39-1-1-1-2.05l1.43-.22c-.29-2.17-1.41-4.57-1.65-7,.41.13.85.54,1.27,0a13,13,0,0,1-.1-4.75,35.24,35.24,0,0,1,1.1-4.66l-1.19-1.12a.48.48,0,0,1,.78-.2c.46-1.15-.76-.06-1.23-.61a.59.59,0,0,1,1.05-.45c-1-2-2.16-5.74-.84-7.86l.35.42c.51-1.66-2.48-1.87-1.34-3.4l.22.29c.56-3.59-.56-7.55,1.34-10.29-1.79-.52.83-3.55-1.68-3.78,1.26-2.05,1.7-1.46,2.58-4.34.12-.77-1.58-1.15-1.84-2.11l1.33,0-1.39-1.29,1.6-.69-.33-.89a1.07,1.07,0,0,1-1,.7c-.6-1.4,1-3.4,1.65-3.44l-1.11-3.3c.54.07.72.63,1.06,1.06-1.36-1.76,1.43-.32.18-1.93-.31.22-.8-.12-1.08-.15.83-.81.85-2.64.52-4l.93.26c.27-2.45-.4-5.16-.35-7.91-.46,1-2.1.76-2.25-.05l1.45-.32c-.89-.52-.55.84-1.64-.22.17-1,1.66-.69,2.13-.1l-.5-1.25c.44-.08.67.22,1.22.29-.9-.51,1.49-2.15-.08-2.89l.44-.07c0-2.75-.45-4-.51-6.23-1.28-.05-1-.92-2-1.59.41-1.64,1.44-3.47,1.35-5.45-.63-1.39-1.09-.41-1.86-1,1.18-.11,1.09-2.08,1.93-1.06a19.39,19.39,0,0,0-1.16-6c-.49.32-.7.69-1.11.5-.19-.55.51-1.24,1.08-1.16l.13.14c-1.79-3.38,3.57-7.79,1.08-10.48l.12.15-1.3-2.79c.22-1.28.91.77,1.67-.18-2-3,.34-4.75-1-7.23,3.66-1.91-.2-6.8,2.16-9.39l-.87.15c-.84-.67.51-.81.71-1.3-.67.07-.79.72-1.25.31-1-5.67,1.37-11.69,2.26-17.5.28-2.13-4.61-1.21-2.44-3.89l1.66.76c-2-4.28.2-8.76-1.47-13,.39.25.9.26.89.67,1.26-.89.11-3.28-.91-3.3.12-.65.92-.15,1.45-.55.75-.89-1.57-2.23-.31-2.71.2-.08.4.25.5.42-.61-.58.19-2.7-1.27-2.15.71-1.57-.62-3,.27-4.27-1.64-.82.83-2.69-1.51-2.95,2.42.11,2-2.77.86-3.76.73.33.77-.87,1.79-.48,0-1.13-.45-2.18-1.72-2,3-2.09-2.32-4.21,1.48-5.39a54.68,54.68,0,0,1-2.72-9.53c2.51.11.21,3.35,2.84,3.22-1-2.88-3.14-4.54-2.5-7.4.35-.74,1.09.42,1.52.67-1-2.88.31-5.56-1.06-8.12.24,0,.5.28.69.54-.08-.5.39-1.17-.78-1.12l.31.5c-1.7.8-3.53-2-4.43-2.1,3.36.86.86-2.53,5.11-1.17a1.67,1.67,0,0,0-1.56-.67c.23-.49.7-.65,1.59-.15-.62-1.81-1.89-1.17-1.85-2.81.58,0,.79.34,1.47.51-1.11-.83-2.23-1.66-1.73-3,.35.09.8-.07.79.34-.15-2.38-3-4-1.87-6.66,2.53.77.84-.89,3-1l-.64-1.4-1.07.56c.05-1.23-1.56-2.31-.83-3.37l.91.92-.4-2.31-.85,1.31c-1.14-1.25-2.81.13-2.18-1.51.22.34,0-1.22,1.34-1.86h0c-.71-.61-1.46-1.23-.9-2.14.72-.24,2.47.19,3,0-1.87-.6-.5-2.87-2.5-3.63a3.93,3.93,0,0,0,1.89.18l-1.52-.5c.49-.57.73-.66,1.67-.56.29-1.71-2.86.54-1.62-1.49.12.16.35.08.58.41.66-2-1-3.94-.18-5.81,2.31-.56.55,1.64,2.5,1-.38-2.7-2.72-5.6-2.15-8.21l-.27.49c-3.3-.37,1.65-2,.1-3.28.25.33,1.84.43,1.48.34.55-1.79-.78-3.66-1.83-6.38l.87.34c.78-1.06.47-2.78.87-3.92-.86-.34-.72-1-2-.6,5-3.51-2.67-6.7,1.56-9.83,0,.38.78.89.78.6l-.8-2.66c-1.52.21-.92.35-2.11.91a2.27,2.27,0,0,1-1.6-1.75c1,1.2,2.45,0,3.31-.53-.47.09-1-.09-1.46,0,2.73-1.39-3.08-.24-1.24-2.13l.8.1c-.4-.71-1.47-1.36-1.24-2.13,1.78-.32.83.76,2.3.81-.1-1.08-3.38-2.12-1.6-3.1.5.46.51,1.12,1,1.57,2.1-1.06,1.58-1.18,1.92-2l-.05.08,1-1.82-.58.46c-4.69-1.34-.83-2.73-3.92-4.55,2.93,1.77,1.69.3,3.75.43.58-.46,1.23-1.17,1.8-1-1.65-.86,1.34-1.43-1.09-2.64.67-.06.08-.92,1.75-.73-.51-1.11-1.17.27-2,.17-2.28-1.71,2.83-4-.3-6.5-1.29-2.12-3.59-2.52-4.74-4.49,1.1-.67,2.5.54,2.5.54,1-1.07.84-1.88.05-2.9a2.59,2.59,0,0,0,1.89-.31c-.17-.81-2.51-.54-1.49-1.62a13.94,13.94,0,0,1,2.78.82c-.63-1-1.91-1.91-2.53-2.9,1.21-.26,1.83.6,2.61.95-.52-1.12-1.06-2.89-3-3.24l-.69.72c-.09-.41,1.66-.21,2,.09,1.5,1-.68,1.38-1.38,1.43l-.44-.7c-4.09.72.65,2.83.39,4.26l-2.94-.6,2.44,1.46c-.77.31-2.41.52-2.85-.18-1.45,1,1,.9-.57,1.78a.44.44,0,0,1-.5,0l.87,1c-.62-.2-2.06.17-1.64-.45-1.67,1.79,2.19,2.89,0,3.56l-.18-.15c1,2.48,2.13.24,4.61,2.1l-5.21,1.25,2.12.25a.87.87,0,0,1-1.08.67c1.45,1,.92-.17,2.28.39-1.91,1.23.89,3.39-2.44,3.67,1.59.44,1.23-1.18,2.33.14-3.57.37.62,1.52-1,2.64-1.84-.34-.87-1.41-2.5-.28,3.1.68-.67,2.19-.06,3.14,2.45,0,1,2.06,1.85,3.66-.81-.1-1.31,3-2.17,4.48l-.41,0c2.44.29,2,1.82,2.5,2.93a3.44,3.44,0,0,1-2.68-.85l0,1a2,2,0,0,1,1.47,1.25l-1.8-.26c.11,1.39,2.14,2.8,1,4.59,1.66.11,4.65-1.42,5.76.47-.91.07-2.45.14-2.82-.35.12.16.75.58.37.91L132.35,49c-.66.81,1.27.43,1.13,1.08-1.28,0-.91.48-1.93.39-.12-.17.53-.57,0-.82a3.15,3.15,0,0,1-1.94,1.92c.73-.07,1.72,0,1.89.54.1,1.39-1.53.47-2.17,1.28.88.34,0,1.23,1.88,1.25,0,.41-.89.49-1.41.64.85.72.28,3.37,2.27,2.56l.14-.19a.83.83,0,0,0,.08.12h0c1.88,2.36-1,4.91-.22,7.25h-.62c.72,1.4.44,3.11,1.77,4.11,0,.42-1.12,1-1.85.8.47,1.07,1.16,1.19.16,2.74-1.07-1.08-.94.37-.79-1.11-.51,1.39-1.48,1.71.19,3.2a1.16,1.16,0,0,0-1.47,1.71l1.1-1a4.09,4.09,0,0,1,0,2.06l-2-.36c-2.4,2.84,4.23,5.13.16,7.29,1.41.75,1-1.54,2.62-.87-.27,1.31-3.12,2.67-3.12,3.08-1.08,1.79,2.93,1.67,2.19,3.55.7-.24,2.59-.47,3.26.93-.26,1.31-2.95,1.61-3.52.79a.36.36,0,0,1,.4-.46c-.26-.42-.57-1-1.33-.46l.71.17c-.72.65-.62,2.45-1.78,2,.68,1,1.16.42,1.52-.31-1,1.68,0,2.63-.67,4.35.38-.27,1.2-.52,1.19-.25-.84,2.53,1.33,1.12,1.65,2.83-1.05,1-2.53-.35-1.63,1.38-.7,1.06-1.83.23-2.4-.19,1.35,1.57-.84,2.94-1.07,3.84l-.57-.83a2,2,0,0,1,.34,1.32l1.37-.48c-.23.49-.23.9-.81.89.91.5,2.29-.38,3.52.61-.69.65.76,2-1.05,2.21.6-2.05-1.82.22-2.13-1.51a1.18,1.18,0,0,1,0,1.23c-.2.08-.37-.07-.48-.2-1.59,2,2.06.9,2,2.92-1-.25-1.92.47-1.7.8,0-.81,1.69-.39,2.48.36-.78,1.3.6,1.41.51,2.1l.37-.78c1,.26.88.91,1.2,1.82-.78.07-.54-.83-.89-.5,1.78,1-1.81,2.27-.61,3.67-.67.65-1.88.06-2.33.63,1.31,1.58-1.35,1.71-.25,3.36,1.33-.48,1-.56,2.31.6l-1-2.71,2,1.74c0-.82-.86-1.73-.63-2.22,1.1.83.76.74,1.88.35-2,1.12,1.18,2.22-.17,3.52l-3.31,0c-1.44,1.95,1.73,3.46.93,6l.56-.81c1.3.34.19,1.56.72,2.38-1.08-.08-1.47.44-2.15.79.81-.05-.05,1.85,2.11,2.08l-1.41,1.13c-.55,2,3.09,2.33,2.73,4.29-1.17-.59-1.92.3-2.76-1,0,.65-.2,1.24.55,1.25-.67.39,1.45,1.82.44,2.42.47.28,1.58.37,1.5,1.11a1,1,0,0,1-.52,0c.52,0,.72,1.16,1.89.51-3.29,2,.25,5.65-2.54,7.41a28,28,0,0,1,.79,4.45c-.31-.08-.52,0-.41-.25-.95,1.79,3,1.1,1.9,3.14-1.65,1-.9-1.08-1.53-.43-3.38.28.48,2.46-1.47,3.83l-.21-.33c-1.12,1.05,1.3,2.56,1.07,4.27a1,1,0,0,0-.5,0c1.71,1.17,2.28,3.39,2.75,5-1.29-.51-.69-.75-2-.43.19.73,2.11-.22,2.48,1.25-.7.48-1.31,1.55-2.7,1.69l-.09-1.39c-1.8.71.08,1.8-.23,2.53l-.79-.09c.28,2.13,2.25,2.16,2.12,4.45l.59-.23c1.94,1.25-1.09,1.05.36,2.29l-2,.38a20.38,20.38,0,0,1,2.28,4.38c-1.45-.84-2.2-2.57-3.07-3.65,0,.82.16,2.79,1.13,3.21-.19-.33-.67-.74-.37-1.07a4.47,4.47,0,0,1,2.27,4c-3.77-.29-.94,4.26-3.84,5.44,1.4,2.89-.54,5.73-.29,9.09,2.86-1.19.09,1,3,.78.19.78.14,1.08,0,1.15l-1.75,2.38c-.84.56-.65-.75-1.3-.68-.21,1.72-1.24.72-2,1.86,1-.24,1.5.59,1.11,1.57l1.33-1.38c1.57,2.4-2.43,2.08-.87,4.49l-.92-.76c.55,1.24,0,4.57,2.36,5.79-.33.22-1.12.51-1.33,0-.31,3,2.5,6.6,1.11,8.9l-.7-.22c.21.55,1.31,1,.62,1.65-.29,0-.7-.22-.73,0,.24.29,1.22,1.47.82,2.2l-.78-.63c-.87,2.89,1.93,4.44,2.41,6.86-2,0-2.65,2.27-3,3.41l-.28,0c-.21,3.36,1.71,5.72,2.51,8.83-2.13,1.94-.85,6.56-2,9.67.35-.48,1.52.08,1.72.63-.39.73,1.35,2-.42,1.9l0-.26c-1.74.55-1.26,2-1.3,3.22l2.32.2c-3.33,3.06,1.27,8-1.69,9.69.57.74.57,1.66,1.14,2.39l-1.21,0a17.19,17.19,0,0,0-.12,5.6l-.87-.51c-.06,1.43,3.49,1.8,3.56,3.12l-1.78.39c0,2.5-1.49,5,.13,7.48-.26,0-.77-.11-.84-.52,0,1.18-1.15,4.54,1.26,4.11-1.57,0-.13,2.57.56,3.92l-1.15-.21c1.48,1.13,1.88,1.17,2.29,2.76-.15.37-.92.33-.63-.17-.59,1.25,1.09,1,.49,2.49l-.73-.56c-.08,1.28.31,1.18,1.16,1.89a2.1,2.1,0,0,1-1.3,2.64c.62.17,1.46.87,1.17,1.63a.69.69,0,0,1-.74-.31c-.75,2.16,1.3,3.2.2,4.69a.93.93,0,0,0-.68.25,14.29,14.29,0,0,1,.18-3c-1,0-1.23,1.38-2.65.28.77,1.11,2.47,3,2,4.35a1.21,1.21,0,0,1-.36.18l-.12-.14a.93.93,0,0,0,.16.85,3.55,3.55,0,0,0-.33,1.12c-.88.16-.52,1.59-.59,2.28,1.17-.06,1,.84,1.94,0-.08.1-.13-.14-.17-.59a.82.82,0,0,0-.11-.3l.1.05c0-.45,0-1,0-1.71.57.54,1.06,1.11.4,1.87.74.36,1.51.75,1.87,1-1.64.95-2.57,2.77-3.62,3,.57,2.1.17,5,2.53,6.28.3.6-.7.69-1.09.91-.23-.34-.18-.75-.52-.94.57,1.2.1,3.55,1.84,3.83-.83,1.51-1.58-.85-1.37,1.23l-.52-.28c-1.51,2-.49,3.69.55,5.4s2,3.48,0,5.74c.25-.31.37-.47.69-.53-.9,2.58-.56,5.23-.25,7.88a21.8,21.8,0,0,1,.15,4,26.75,26.75,0,0,1-.6,3.88c-.06,1.44,1.08,1.6,1.88,2.48l-1,.31a12.62,12.62,0,0,1,1.45,1.51c.86,2.14-1.23,3.7-1,6.41.25-.11.5-.23.72-.35a14.65,14.65,0,0,1-.53,1.89c-.28.63-.74,1.11-1.38,1a2.34,2.34,0,0,1,.44.25c.12.11.15.26-.39.45l-1.16,0a2.84,2.84,0,0,0-.2,2.39c-1.9.92-4.66.85-7.17.89a38.63,38.63,0,0,0-4.34.26c-.88.11-1.87.25-3,.46l-2.06.35-1.14.21-.6.12-.71.12c-1,.25-1.73.56-1.89.87,0,.15-.17.31-.08.46a1.26,1.26,0,0,0,.71.43l.6.2a7.53,7.53,0,0,0,.74.17c.56.11,1.25.2,2,.27a30.76,30.76,0,0,0,4.57.08,44.35,44.35,0,0,1,4.69-.67,67.65,67.65,0,0,1,6.82-.39,16.05,16.05,0,0,0,2.06.92l13.8.17c4.66.05,9.16.09,13.53,0l3.17,0,2.68-.08c1.66-.07,3-.16,4-.28,1.71-.25,2.32-.63.49-1.19-6.11-.53-11.66-1.05-15.66-1.58.82-.17,1.6-.33,2.2-.5l1.63.33L159,380l1.84.33,2.13.33c.08-.09,0-.18-.23-.27a4.23,4.23,0,0,0-.78-.25c-.7-.15-1.73-.3-2.89-.44l-7.09-.8c1.52-.12,1.9-.35,1.07-.66l-1.65-.19-1.46-.19-2.71-.39-2.43-.38-2-.39a20.08,20.08,0,0,1,2.93.15c1,.06,1.66,0,.39-.49-2.06-.37-2.26-.19-2.8-.08a2.91,2.91,0,0,1-1,.05,6.31,6.31,0,0,1-1.82-.48c.16-.37.59-.51.6-.66s-.33-.31-1.45-.75a3.85,3.85,0,0,1,2,.41c-.29-.1-.57-.2-.83-.31s-.46-.23-.68-.35a7.47,7.47,0,0,1-1.08-.72,7,7,0,0,0-1.45-1.1c.22-.4-.17-1.06-.3-1.61s-.14-1,.37-1a3.07,3.07,0,0,1-.81-2.1c.53.66.58,0,.89-.82s.82-1.71,1.6-1.54c-.4-.48-.15-1.36.25-2.34s.86-2,.38-2.91c.17.1.5.29.34.44.46-1,1.26-1.25,1.81-1.88-2-.12-2.54-1.64-3.83-2.45,2-1.2,2.46.72,4.41.35-1.7.06-1.7-2.08-3.12-1.67,1.25-.91.61-.79,2.35-1.26-2.63-.15-.45-.84-2.06-1.6,1.29-1.32,2.46-.34,1.63-1.79C142.32,349.55,143.29,350.84,143.29,350.84Zm-5.48-34.47h0l.07.71Zm0-2.9a9.94,9.94,0,0,0,0,1.26c-.39.1-.8,0-.78-.3C137.22,314.59,137.45,313.91,137.78,313.47Zm-8,6.13c-.15-.46.08-.61.32-.67a6.8,6.8,0,0,0,.12.8l.14,0A1.8,1.8,0,0,1,129.81,319.6Z"/><path class="cls-1" d="M131.31,320.43c0,.06.07.1.08.19a2.3,2.3,0,0,0,.27-.28l-.36-.16Z"/><path class="cls-1" d="M132.09,57.85l0,.06a.7.7,0,0,1,.26-.13C132.22,57.82,132.17,57.82,132.09,57.85Z"/><polygon class="cls-1" points="140.3 273.48 139.99 273.48 140.26 273.73 140.3 273.48"/><path class="cls-1" d="M138.38,41.89a1.07,1.07,0,0,0,.48-.21A1.27,1.27,0,0,0,138.38,41.89Z"/><path class="cls-1" d="M138.86,35l.68-1A3.6,3.6,0,0,0,138.86,35Z"/><path class="cls-1" d="M139.85,29.7c-.34-.06-.59-.08-.82-.1h0Z"/><path class="cls-1" d="M140.91,114a.48.48,0,0,0,.07.2C141.29,114.63,141.17,114.31,140.91,114Z"/><path class="cls-1" d="M137.29,88.88a4.52,4.52,0,0,1,.78.81C138.2,89.24,138.24,88.89,137.29,88.88Z"/><path class="cls-1" d="M142.41,142h0v.18Z"/><path class="cls-1" d="M138,90.85a.91.91,0,0,0,0-1.16A1.31,1.31,0,0,0,138,90.85Z"/><path class="cls-1" d="M141,6.74l.09-.26a1,1,0,0,1-.32,0Z"/><path class="cls-1" d="M140.81,6.45l-.24-.28C140.57,6.3,140.58,6.41,140.81,6.45Z"/><path class="cls-1" d="M140.07,5.57l.5.6C140.58,6,140.65,5.71,140.07,5.57Z"/><path class="cls-1" d="M140,13.75l.72.08A3.33,3.33,0,0,0,140,13.75Z"/><path class="cls-1" d="M140.2,15.89c.17-.51,1.54-1.28,1.11-2l-.57-.07C141.8,14.17,139,15.4,140.2,15.89Z"/><path class="cls-1" d="M131.44,24.78,132,23c-.74.31-1.74.72-1.93-.09C127.85,25.16,131.73,22.44,131.44,24.78Z"/><path class="cls-1" d="M130.42,30.32c-.36-1-1.07,0-1.49,0C129.61,30.89,129.78,31,130.42,30.32Z"/><path class="cls-1" d="M130.78,70.34l-1.59-.09C129.43,71,129.8,70.25,130.78,70.34Z"/><polygon class="cls-1" points="138.91 78 139.88 77.28 138.46 76.93 138.91 78"/><polygon class="cls-1" points="127.87 82.51 127.64 82.19 128.22 83.42 127.87 82.51"/><path class="cls-1" d="M129.18,149.73l1.67-.22C130.55,149,128.67,148.9,129.18,149.73Z"/><path class="cls-1" d="M131.11,178.75c-.78.32-1.28,1.13-.51,1.64C130.71,179.73,131.32,179.08,131.11,178.75Z"/><polygon class="cls-1" points="129.33 265.78 128.86 265.2 129.25 266.3 129.33 265.78"/></svg>